<svg width="28" height="23" viewBox="0 0 28 23" fill="none" xmlns="http://www.w3.org/2000/svg">
<path d="M6.03282 8.90048L3.20382 11.7295L10.9868 19.5125L24.9188 5.58047L22.0908 2.75147L10.9868 13.8535L6.03282 8.90048Z" fill="#C5C5C5"/>
<path d="M21.1624 20C21.1624 20.542 20.7044 21 20.1624 21H3.16235C2.62035 21 2.16235 20.542 2.16235 20V3C2.16235 2.458 2.62035 2 3.16235 2H20.0704L21.6554 0.415C21.2034 0.146542 20.688 0.00329969 20.1624 0H3.16235C1.51235 0 0.162354 1.35 0.162354 3V20C0.162354 21.65 1.51235 23 3.16235 23H20.1624C21.8124 23 23.1624 21.65 23.1624 20V10.171L21.1624 12.171V20Z" fill="#C5C5C5"/>
</svg>
